<svg xmlns="http://www.w3.org/2000/svg" width="20" height="15" viewBox="0 0 20 15" fill="none">
<path fill-rule="evenodd" clip-rule="evenodd" d="M0 1.5C0 0.671573 0.671573 0 1.5 0H12.5C13.3284 0 14 0.671573 14 1.5C14 2.32843 13.3284 3 12.5 3H1.5C0.671573 3 0 2.32843 0 1.5ZM0 7.5C0 6.67157 0.671573 6 1.5 6H18.5C19.3284 6 20 6.67157 20 7.5C20 8.32843 19.3284 9 18.5 9H1.5C0.671573 9 0 8.32843 0 7.5ZM1.5 12C0.671573 12 0 12.6716 0 13.5C0 14.3284 0.671573 15 1.5 15H5.5C6.32843 15 7 14.3284 7 13.5C7 12.6716 6.32843 12 5.5 12H1.5Z" fill="#FFF"/>
</svg>
